<svg xmlns="http://www.w3.org/2000/svg" xmlns:xlink="http://www.w3.org/1999/xlink" width="500" zoomAndPan="magnify" viewBox="0 0 375 374.999991" height="500" preserveAspectRatio="xMidYMid meet" version="1.0"><defs><g/><clipPath id="837707127c"><path d="M 187.5 0 C 83.945312 0 0 83.945312 0 187.5 C 0 291.054688 83.945312 375 187.5 375 C 291.054688 375 375 291.054688 375 187.5 C 375 83.945312 291.054688 0 187.5 0 Z M 187.5 0 " clip-rule="nonzero"/></clipPath></defs><g clip-path="url(#837707127c)"><rect x="-37.5" width="450" fill="#59738d" y="-37.499999" height="449.999989" fill-opacity="1"/></g><g fill="#faf6f5" fill-opacity="1"><g transform="translate(100.086322, 180.283086)"><g><path d="M 29.015625 -103.625 L 11.695312 -103.625 L 11.695312 0 L 29.015625 0 C 54.773438 0 89.5625 -7.550781 89.5625 -51.8125 C 89.5625 -97.851562 54.183594 -103.625 29.015625 -103.625 Z M 29.015625 -16.875 L 29.015625 -86.75 C 29.015625 -86.75 72.09375 -93.265625 72.09375 -51.8125 C 72.09375 -10.953125 29.015625 -16.875 29.015625 -16.875 Z M 29.015625 -16.875 "/></g></g></g><g fill="#faf6f5" fill-opacity="1"><g transform="translate(192.158182, 180.283086)"><g><path d="M 59.511719 -11.992188 L 64.101562 0 L 82.753906 0 L 41.300781 -106.585938 L 0 0 L 18.652344 0 L 23.09375 -11.992188 Z M 28.71875 -26.941406 L 41.300781 -62.917969 L 53.886719 -26.941406 Z M 28.71875 -26.941406 "/></g></g></g><g fill="#faf6f5" fill-opacity="1"><g transform="translate(119.914837, 298.38374)"><g><path d="M 63.359375 -51.664062 C 72.242188 -53.886719 80.679688 -60.84375 80.679688 -74.464844 C 80.679688 -104.367188 46.1875 -103.625 46.1875 -103.625 L 11.695312 -103.625 L 11.695312 0 L 46.1875 0 C 53.144531 0 82.160156 -1.332031 82.160156 -29.753906 C 82.160156 -29.753906 82.902344 -47.667969 63.359375 -51.664062 Z M 28.867188 -60.398438 L 28.867188 -86.453125 L 46.1875 -86.453125 C 46.1875 -86.453125 63.359375 -87.195312 63.359375 -73.277344 C 63.359375 -60.398438 46.1875 -60.398438 46.1875 -60.398438 Z M 46.1875 -17.171875 L 28.867188 -17.171875 L 28.867188 -43.078125 L 46.1875 -43.078125 C 46.1875 -43.078125 64.839844 -44.117188 64.839844 -30.199219 C 64.839844 -18.949219 53.441406 -17.171875 46.1875 -17.171875 Z M 46.1875 -17.171875 "/></g></g></g><g fill="#faf6f5" fill-opacity="1"><g transform="translate(203.253138, 298.38374)"><g><path d="M 34.34375 -87.785156 L 45.890625 -87.785156 L 45.890625 -103.625 L 5.476562 -103.625 L 5.476562 -87.785156 L 17.023438 -87.785156 L 17.023438 -15.839844 L 4.886719 -15.839844 L 4.886719 0 L 46.484375 0 L 46.484375 -15.839844 L 34.34375 -15.839844 Z M 34.34375 -87.785156 "/></g></g></g></svg>