<svg version="1.1" xmlns="http://www.w3.org/2000/svg" viewBox="0 0 1039.1365509033203 386.5" width="2078.2731018066406" height="773">
  <!-- svg-source:excalidraw -->
  
  <defs>
    <style class="style-fonts">
      @font-face {
        font-family: "Virgil";
        src: url("https://excalidraw.com/Virgil.woff2");
      }
      @font-face {
        font-family: "Cascadia";
        src: url("https://excalidraw.com/Cascadia.woff2");
      }
    </style>
    
  </defs>
  <rect x="0" y="0" width="1039.1365509033203" height="386.5" fill="#ffffff"></rect><g stroke-linecap="round" transform="translate(708.5 286.5) rotate(0 51.25 45)"><path d="M22.5 0 M22.5 0 C40.69 0.21, 63.56 0.22, 80 0 M22.5 0 C37.39 -0.02, 54.45 -0.85, 80 0 M80 0 C95.9 -1.11, 100.76 5.79, 102.5 22.5 M80 0 C93.86 -1.24, 100.6 9.63, 102.5 22.5 M102.5 22.5 C103.74 40.08, 100.23 59.88, 102.5 67.5 M102.5 22.5 C101.95 40.46, 102.06 56.86, 102.5 67.5 M102.5 67.5 C103.09 80.94, 95.35 90.02, 80 90 M102.5 67.5 C102.41 80.92, 93.2 88.19, 80 90 M80 90 C64.59 88.79, 43.74 89.17, 22.5 90 M80 90 C66.99 90.31, 54.03 89.02, 22.5 90 M22.5 90 C9.49 90.77, -1.15 84.44, 0 67.5 M22.5 90 C6.55 88.9, -1.34 81.98, 0 67.5 M0 67.5 C-1.26 55.28, 1.77 45.04, 0 22.5 M0 67.5 C-0.23 58.01, 0.62 49.24, 0 22.5 M0 22.5 C-1.71 7.34, 8.62 0.63, 22.5 0 M0 22.5 C1.41 6.86, 5.24 1.41, 22.5 0" stroke="#1e1e1e" stroke-width="1" fill="none"></path></g><g transform="translate(714.4000549316406 306.5) rotate(0 45.349945068359375 25)"><text x="45.349945068359375" y="0" font-family="Virgil, Segoe UI Emoji" font-size="20px" fill="#1e1e1e" text-anchor="middle" style="white-space: pre;" direction="ltr" dominant-baseline="text-before-edge">User Web</text><text x="45.349945068359375" y="25" font-family="Virgil, Segoe UI Emoji" font-size="20px" fill="#1e1e1e" text-anchor="middle" style="white-space: pre;" direction="ltr" dominant-baseline="text-before-edge">Client</text></g><g transform="translate(778 191) rotate(0 125.56827545166016 20)"><text x="0" y="0" font-family="Virgil, Segoe UI Emoji" font-size="16px" fill="#1e1e1e" text-anchor="start" style="white-space: pre;" direction="ltr" dominant-baseline="text-before-edge">3. Get HTML, CSS and JS files</text><text x="0" y="20" font-family="Virgil, Segoe UI Emoji" font-size="16px" fill="#1e1e1e" text-anchor="start" style="white-space: pre;" direction="ltr" dominant-baseline="text-before-edge">for the browser</text></g><g stroke-linecap="round" transform="translate(677 16) rotate(0 82.5 54.5)"><path d="M27.25 0 M27.25 0 C52.36 -0.31, 78.59 0.39, 137.75 0 M27.25 0 C58.77 -0.77, 90.59 -1.36, 137.75 0 M137.75 0 C157.67 -0.97, 164.23 7.2, 165 27.25 M137.75 0 C157.85 0.75, 166.25 9.83, 165 27.25 M165 27.25 C164.76 40.99, 165.08 55.49, 165 81.75 M165 27.25 C164.11 48.71, 165.4 69.66, 165 81.75 M165 81.75 C165.28 98.03, 157.61 107.69, 137.75 109 M165 81.75 C165.31 99.13, 155.66 108.12, 137.75 109 M137.75 109 C102.66 109.55, 67.2 109.72, 27.25 109 M137.75 109 C100.69 109.98, 61.6 110.51, 27.25 109 M27.25 109 C8.44 108.49, 1.84 100.65, 0 81.75 M27.25 109 C8.53 110.29, 0.88 101.43, 0 81.75 M0 81.75 C2.32 67.01, 1.04 54.79, 0 27.25 M0 81.75 C-0.58 62.47, 1.32 42.69, 0 27.25 M0 27.25 C-0.83 7.3, 7.96 -0.95, 27.25 0 M0 27.25 C0.69 9.86, 9.24 -0.73, 27.25 0" stroke="#1e1e1e" stroke-width="1" fill="none"></path></g><g transform="translate(683.710090637207 33) rotate(0 75.78990936279297 37.5)"><text x="75.78990936279297" y="0" font-family="Virgil, Segoe UI Emoji" font-size="20px" fill="#1e1e1e" text-anchor="middle" style="white-space: pre;" direction="ltr" dominant-baseline="text-before-edge">Github Pages</text><text x="75.78990936279297" y="25" font-family="Virgil, Segoe UI Emoji" font-size="20px" fill="#1e1e1e" text-anchor="middle" style="white-space: pre;" direction="ltr" dominant-baseline="text-before-edge">(Static website</text><text x="75.78990936279297" y="50" font-family="Virgil, Segoe UI Emoji" font-size="20px" fill="#1e1e1e" text-anchor="middle" style="white-space: pre;" direction="ltr" dominant-baseline="text-before-edge">cloud service)</text></g><g stroke-linecap="round" transform="translate(354 10.5) rotate(0 89.5 59)"><path d="M29.5 0 M29.5 0 C68.89 -0.6, 108.93 -1.77, 149.5 0 M29.5 0 C69.44 -0.8, 109.38 0.16, 149.5 0 M149.5 0 C168.83 -1.09, 180.72 8.88, 179 29.5 M149.5 0 C167.71 0.02, 177.72 8.12, 179 29.5 M179 29.5 C177.32 51.18, 177.51 71.37, 179 88.5 M179 29.5 C178.72 43.38, 180.14 59.12, 179 88.5 M179 88.5 C180.34 106.68, 168.13 118.17, 149.5 118 M179 88.5 C176.76 110.36, 169.34 119.24, 149.5 118 M149.5 118 C124.96 116.48, 100.74 117.23, 29.5 118 M149.5 118 C111.62 117.95, 72.97 118.33, 29.5 118 M29.5 118 C11.04 119.29, 1.06 107.94, 0 88.5 M29.5 118 C12.03 117.87, 1.72 110.28, 0 88.5 M0 88.5 C-0.36 74.41, 0.64 56.57, 0 29.5 M0 88.5 C0.23 73.91, 0.17 57.65, 0 29.5 M0 29.5 C1.55 9.23, 8.2 1.71, 29.5 0 M0 29.5 C1.96 9.33, 7.85 0.25, 29.5 0" stroke="#1e1e1e" stroke-width="1" fill="none"></path></g><g transform="translate(365.6800842285156 44.5) rotate(0 77.81991577148438 25)"><text x="77.81991577148438" y="0" font-family="Virgil, Segoe UI Emoji" font-size="20px" fill="#1e1e1e" text-anchor="middle" style="white-space: pre;" direction="ltr" dominant-baseline="text-before-edge">Github Actions</text><text x="77.81991577148438" y="25" font-family="Virgil, Segoe UI Emoji" font-size="20px" fill="#1e1e1e" text-anchor="middle" style="white-space: pre;" direction="ltr" dominant-baseline="text-before-edge">(CI/CD Pipeline)</text></g><g stroke-linecap="round"><g transform="translate(539.5 70.69570860107342) rotate(0 61.066477491129206 0.7585550858206034)"><path d="M-0.79 -0.98 C19.36 -0.89, 100.38 0.61, 120.83 1.18 M1 1.12 C21.5 1.33, 102.92 2.59, 122.92 2.49" stroke="#1e1e1e" stroke-width="1" fill="none"></path></g><g transform="translate(539.5 70.69570860107342) rotate(0 61.066477491129206 0.7585550858206034)"><path d="M93.03 10.61 C102.2 9.56, 112.56 7.4, 123.59 2.19 M94.21 12.73 C101.87 10.66, 110.02 7.59, 123.9 2.6" stroke="#1e1e1e" stroke-width="1" fill="none"></path></g><g transform="translate(539.5 70.69570860107342) rotate(0 61.066477491129206 0.7585550858206034)"><path d="M93.17 -9.91 C102.4 -4.94, 112.72 -1.08, 123.59 2.19 M94.35 -7.79 C102.05 -4.59, 110.17 -2.39, 123.9 2.6" stroke="#1e1e1e" stroke-width="1" fill="none"></path></g></g><mask></mask><g stroke-linecap="round" transform="translate(10 10) rotate(0 99.75 62.5)"><path d="M31.25 0 M31.25 0 C65.67 -1.8, 98.91 -0.3, 168.25 0 M31.25 0 C71.6 0.34, 111.3 2.01, 168.25 0 M168.25 0 C187.8 -0.89, 197.85 12.08, 199.5 31.25 M168.25 0 C190.73 -1.81, 199.16 9.82, 199.5 31.25 M199.5 31.25 C197.98 54.6, 198.9 79.53, 199.5 93.75 M199.5 31.25 C198.66 48.61, 200.26 66.13, 199.5 93.75 M199.5 93.75 C199.8 115.55, 188.84 123.69, 168.25 125 M199.5 93.75 C199.41 114.41, 189.61 126.23, 168.25 125 M168.25 125 C122.5 124.47, 79.14 124.03, 31.25 125 M168.25 125 C114.5 125.93, 60.05 127.25, 31.25 125 M31.25 125 C12.26 126.84, 1.44 113.13, 0 93.75 M31.25 125 C11.63 125.01, -1.75 112.52, 0 93.75 M0 93.75 C-1.03 77.73, -1.39 56.62, 0 31.25 M0 93.75 C-0.5 80.32, -0.55 66.53, 0 31.25 M0 31.25 C0.86 9.56, 12.25 -1.59, 31.25 0 M0 31.25 C-1.98 9.03, 8.42 -1.77, 31.25 0" stroke="#1e1e1e" stroke-width="1" fill="none"></path></g><g transform="translate(43.410072326660156 47.5) rotate(0 66.33992767333984 25)"><text x="66.33992767333984" y="0" font-family="Virgil, Segoe UI Emoji" font-size="20px" fill="#1e1e1e" text-anchor="middle" style="white-space: pre;" direction="ltr" dominant-baseline="text-before-edge">Github Repo</text><text x="66.33992767333984" y="25" font-family="Virgil, Segoe UI Emoji" font-size="20px" fill="#1e1e1e" text-anchor="middle" style="white-space: pre;" direction="ltr" dominant-baseline="text-before-edge">(Source code)</text></g><g stroke-linecap="round"><g transform="translate(344.5 71.5) rotate(0 -63.132249896237624 1.4093192074633976)"><path d="M0.26 0.29 C-20.65 0.7, -104.88 1.75, -125.9 2.27 M-1.06 -0.6 C-22.03 -0.04, -105.66 3.11, -126.53 3.42" stroke="#1e1e1e" stroke-width="1" fill="none"></path></g><g transform="translate(344.5 71.5) rotate(0 -63.132249896237624 1.4093192074633976)"><path d="M-98.15 -6.62 C-107.25 -3.54, -112.79 -0.08, -126.18 3.02 M-99.63 -7.27 C-105.29 -5.63, -109.8 -2.31, -126.34 3.39" stroke="#1e1e1e" stroke-width="1" fill="none"></path></g><g transform="translate(344.5 71.5) rotate(0 -63.132249896237624 1.4093192074633976)"><path d="M-97.58 13.9 C-106.8 11.56, -112.49 9.59, -126.18 3.02 M-99.06 13.24 C-104.98 10.43, -109.62 9.29, -126.34 3.39" stroke="#1e1e1e" stroke-width="1" fill="none"></path></g></g><mask></mask><g transform="translate(236 14.5) rotate(0 52.72010040283203 20)"><text x="0" y="0" font-family="Virgil, Segoe UI Emoji" font-size="16px" fill="#1e1e1e" text-anchor="start" style="white-space: pre;" direction="ltr" dominant-baseline="text-before-edge">1. Get source</text><text x="0" y="20" font-family="Virgil, Segoe UI Emoji" font-size="16px" fill="#1e1e1e" text-anchor="start" style="white-space: pre;" direction="ltr" dominant-baseline="text-before-edge">code </text></g><g transform="translate(541 11.5) rotate(0 62.920135498046875 20)"><text x="0" y="0" font-family="Virgil, Segoe UI Emoji" font-size="16px" fill="#1e1e1e" text-anchor="start" style="white-space: pre;" direction="ltr" dominant-baseline="text-before-edge">2. Publish built </text><text x="0" y="20" font-family="Virgil, Segoe UI Emoji" font-size="16px" fill="#1e1e1e" text-anchor="start" style="white-space: pre;" direction="ltr" dominant-baseline="text-before-edge">files</text></g><g stroke-linecap="round"><g transform="translate(755 273.5) rotate(0 0.05450741466142972 -70.20031886808573)"><path d="M0.29 0.16 C-0.07 -23.28, -1.11 -117.11, -1.13 -140.56 M-1.02 -0.8 C-1.07 -24.1, 1.12 -116.2, 1.24 -139.32" stroke="#1e1e1e" stroke-width="1" fill="none"></path></g><g transform="translate(755 273.5) rotate(0 0.05450741466142972 -70.20031886808573)"><path d="M11.34 -112.03 C6.31 -120.79, 2.54 -132.94, 0.88 -141.16 M12.02 -111.28 C8.22 -117.17, 5.78 -125.2, 0.4 -139.9" stroke="#1e1e1e" stroke-width="1" fill="none"></path></g><g transform="translate(755 273.5) rotate(0 0.05450741466142972 -70.20031886808573)"><path d="M-9.18 -112.35 C-6.3 -121.04, -2.16 -133.06, 0.88 -141.16 M-8.5 -111.6 C-7.22 -117.22, -4.58 -125.17, 0.4 -139.9" stroke="#1e1e1e" stroke-width="1" fill="none"></path></g></g><mask></mask></svg>